<?xml version="1.0" encoding="UTF-8" standalone="no"?>
<!-- Created with Inkscape (http://www.inkscape.org/) -->

<svg
   xmlns:dc="http://purl.org/dc/elements/1.1/"
   xmlns:cc="http://creativecommons.org/ns#"
   xmlns:rdf="http://www.w3.org/1999/02/22-rdf-syntax-ns#"
   xmlns:svg="http://www.w3.org/2000/svg"
   xmlns="http://www.w3.org/2000/svg"
   xmlns:sodipodi="http://sodipodi.sourceforge.net/DTD/sodipodi-0.dtd"
   xmlns:inkscape="http://www.inkscape.org/namespaces/inkscape"
   width="200mm"
   height="200mm"
   viewBox="0 0 200 200"
   version="1.1"
   id="svg902"
   sodipodi:docname="FloodmaprLogo.svg"
   inkscape:version="0.92.3 (2405546, 2018-03-11)">
  <defs
     id="defs896">
    <clipPath
       clipPathUnits="userSpaceOnUse"
       id="clipPath1568">
      <path
         sodipodi:type="star"
         style="fill:#ffffff;fill-opacity:1;stroke:#000000;stroke-width:18.89763832;stroke-miterlimit:4;stroke-dasharray:none;stroke-opacity:1"
         id="path1570"
         sodipodi:sides="6"
         sodipodi:cx="387.14285"
         sodipodi:cy="374.47693"
         sodipodi:r1="360.10202"
         sodipodi:r2="311.85751"
         sodipodi:arg1="1.5707963"
         sodipodi:arg2="2.0943951"
         inkscape:flatsided="true"
         inkscape:rounded="0"
         inkscape:randomized="0"
         d="m 387.14286,734.57895 -311.8575,-180.051 -1e-5,-360.10202 311.85749,-180.051022 311.85751,180.051002 10e-6,360.10202 z"
         inkscape:transform-center-x="1.2571428e-06"
         clip-path="none"
         transform="matrix(0.35210519,0.35178423,-0.35178423,0.35210519,264.37957,-24.389724)" />
    </clipPath>
  </defs>
  <sodipodi:namedview
     id="base"
     pagecolor="#ffffff"
     bordercolor="#666666"
     borderopacity="1.0"
     inkscape:pageopacity="0.0"
     inkscape:pageshadow="2"
     inkscape:zoom="0.7"
     inkscape:cx="238.30782"
     inkscape:cy="360.65048"
     inkscape:document-units="mm"
     inkscape:current-layer="layer1"
     showgrid="false"
     inkscape:window-width="1920"
     inkscape:window-height="1055"
     inkscape:window-x="0"
     inkscape:window-y="0"
     inkscape:window-maximized="1"
     inkscape:snap-text-baseline="true" />
  <metadata
     id="metadata899">
    <rdf:RDF>
      <cc:Work
         rdf:about="">
        <dc:format>image/svg+xml</dc:format>
        <dc:type
           rdf:resource="http://purl.org/dc/dcmitype/StillImage" />
        <dc:title />
      </cc:Work>
    </rdf:RDF>
  </metadata>
  <g
     inkscape:label="Ebene 1"
     inkscape:groupmode="layer"
     id="layer1"
     transform="translate(0,-97)">
    <path
       sodipodi:type="star"
       style="fill:none;fill-opacity:1;stroke:#000000;stroke-width:4;stroke-miterlimit:4;stroke-dasharray:none;stroke-opacity:1"
       id="path904-0"
       sodipodi:sides="6"
       sodipodi:cx="100.84282"
       sodipodi:cy="197.35464"
       sodipodi:r1="95.276993"
       sodipodi:r2="82.512299"
       sodipodi:arg1="1.5707963"
       sodipodi:arg2="2.0943951"
       inkscape:flatsided="true"
       inkscape:rounded="0"
       inkscape:randomized="0"
       d="m 100.84282,292.63164 -82.512296,-47.6385 -2e-6,-95.27699 82.512298,-47.6385 82.51229,47.6385 1e-5,95.27699 z"
       inkscape:transform-center-x="1.2571428e-06"
       clip-path="none" />
    <rect
       style="opacity:1;fill:#fff6d5;fill-opacity:1;stroke:#000000;stroke-width:0;stroke-miterlimit:4;stroke-dasharray:none;stroke-opacity:1"
       id="rect1582"
       width="150.22726"
       height="32.067486"
       x="25.729187"
       y="213.91962"
       ry="0" />
    <flowRoot
       xml:space="preserve"
       id="flowRoot1572"
       style="font-style:normal;font-variant:normal;font-weight:normal;font-stretch:normal;font-size:40px;line-height:1.25;font-family:'Noto Serif Sinhala';-inkscape-font-specification:'Noto Serif Sinhala';letter-spacing:0px;word-spacing:0px;fill:#000000;fill-opacity:1;stroke:none"
       transform="matrix(0.54401825,0,0,0.54401825,-104.46227,-54.091289)"><flowRegion
         id="flowRegion1574"
         style="font-style:normal;font-variant:normal;font-weight:normal;font-stretch:normal;font-family:'Noto Serif Sinhala';-inkscape-font-specification:'Noto Serif Sinhala';fill:#000000;fill-opacity:1"><rect
           id="rect1576"
           width="487.01627"
           height="74.404915"
           x="133.73489"
           y="494.53864"
           style="font-style:normal;font-variant:normal;font-weight:normal;font-stretch:normal;font-family:'Noto Serif Sinhala';-inkscape-font-specification:'Noto Serif Sinhala';fill:#000000;fill-opacity:1" /></flowRegion><flowPara
         id="flowPara1578"
         style="font-style:normal;font-variant:normal;font-weight:normal;font-stretch:normal;font-size:53.33333588px;font-family:'Noto Serif Sinhala';-inkscape-font-specification:'Noto Serif Sinhala';text-align:center;text-anchor:middle;fill:#000000;fill-opacity:1">floodmapr</flowPara></flowRoot>    <g
       id="g897"
       transform="matrix(0.24243627,0,0,0.17572971,36.210079,126.52523)"
       style="fill:#6394eb;fill-opacity:1">
      <g
         id="g840"
         style="fill:#6394eb;fill-opacity:1">
	<g
   id="g838"
   style="fill:#6394eb;fill-opacity:1">
		<path
   id="path836"
   d="m 495.307,381.298 c -114.438,0 -191.534,-40.036 -211.521,-109.842 -14.42,-50.363 6.178,-99.952 33.53,-117.013 9.403,-5.865 15.116,-6.181 26.167,-6.676 11.62,0.977 23.612,6.895 35.565,17.684 23.37,21.094 21.555,68.579 20.355,100.001 -0.709,18.558 -1.136,29.76 2.688,37.974 4.352,9.347 14.095,13.87 24.817,11.526 16.494,-3.607 34.388,-23.38 45.635,-40.682 16.413,-25.249 25.53,-54.403 25.672,-82.092 0.253,-49.125 -19.27,-90.643 -56.456,-120.072 C 408.476,45.766 362.353,31.009 311.893,30.553 236.551,29.865 160.957,60.076 104.563,113.47 57.878,157.674 1.854,239.256 0.074,376.899 c -0.442,34.159 1.304,64.259 0.025,86.923 -0.541,9.575 7.089,17.635 16.667,17.635 45.343,0 432.143,0 478.541,0 9.219,0 16.693,-7.474 16.693,-16.693 v -66.773 c 0,-9.22 -7.474,-16.693 -16.693,-16.693 z M 33.941,448.07 c 0.161,-20.896 -0.82,-44.738 -0.484,-70.738 2.918,-225.547 161.405,-314.557 278.131,-313.391 76.599,0.692 153.688,40.559 153.238,128.066 -0.181,35.454 -18.502,64.534 -32.244,79.544 0.059,-1.638 0.12,-3.264 0.18,-4.824 1.438,-37.633 3.61,-94.507 -31.347,-126.059 -19.903,-17.964 -41.532,-26.896 -62.703,-26.52 -42.838,-0.798 -84.421,9.68 -120.629,30.512 -73.384,42.224 -118.301,122.002 -118.088,204.804 0.088,34.017 7.893,67.617 22.754,98.606 z m 126.581,0.002 c -46.355,-79.502 -31.447,-174.296 28.317,-238.241 -12.083,23.789 -19.214,50.632 -20.631,78.64 -2.277,45.006 10.352,88.689 35.56,123.002 10.433,14.202 22.717,26.44 36.615,36.599 z m 318.092,0 H 328.644 C 236.029,434.643 198.06,359.205 201.554,290.158 c 2.14,-42.309 20.449,-85.448 56.418,-113.03 -14.106,32.67 -15.843,70.123 -6.282,103.521 11.047,38.582 36.493,71.112 73.586,94.077 39.377,24.377 90.901,37.707 153.339,39.7 v 33.646 z"
   inkscape:connector-curvature="0"
   style="fill:#6394eb;fill-opacity:1" />

	</g>

</g>
      <g
         id="g842"
         style="fill:#6394eb;fill-opacity:1">
</g>
      <g
         id="g844"
         style="fill:#6394eb;fill-opacity:1">
</g>
      <g
         id="g846"
         style="fill:#6394eb;fill-opacity:1">
</g>
      <g
         id="g848"
         style="fill:#6394eb;fill-opacity:1">
</g>
      <g
         id="g850"
         style="fill:#6394eb;fill-opacity:1">
</g>
      <g
         id="g852"
         style="fill:#6394eb;fill-opacity:1">
</g>
      <g
         id="g854"
         style="fill:#6394eb;fill-opacity:1">
</g>
      <g
         id="g856"
         style="fill:#6394eb;fill-opacity:1">
</g>
      <g
         id="g858"
         style="fill:#6394eb;fill-opacity:1">
</g>
      <g
         id="g860"
         style="fill:#6394eb;fill-opacity:1">
</g>
      <g
         id="g862"
         style="fill:#6394eb;fill-opacity:1">
</g>
      <g
         id="g864"
         style="fill:#6394eb;fill-opacity:1">
</g>
      <g
         id="g866"
         style="fill:#6394eb;fill-opacity:1">
</g>
      <g
         id="g868"
         style="fill:#6394eb;fill-opacity:1">
</g>
      <g
         id="g870"
         style="fill:#6394eb;fill-opacity:1">
</g>
    </g>
  </g>
</svg>
