<?xml version="1.0" encoding="UTF-8" standalone="no"?>
<!-- Created with Inkscape (http://www.inkscape.org/) -->

<svg
   width="200mm"
   height="200mm"
   viewBox="0 0 200 200"
   version="1.1"
   id="svg902"
   sodipodi:docname="FloodmaprLogo.svg"
   inkscape:version="1.3.2 (1:1.3.2+202311252150+091e20ef0f)"
   xml:space="preserve"
   inkscape:export-filename="FloodmaprLogo.png"
   inkscape:export-xdpi="97.154999"
   inkscape:export-ydpi="97.154999"
   xmlns:inkscape="http://www.inkscape.org/namespaces/inkscape"
   xmlns:sodipodi="http://sodipodi.sourceforge.net/DTD/sodipodi-0.dtd"
   xmlns="http://www.w3.org/2000/svg"
   xmlns:svg="http://www.w3.org/2000/svg"
   xmlns:rdf="http://www.w3.org/1999/02/22-rdf-syntax-ns#"
   xmlns:cc="http://creativecommons.org/ns#"
   xmlns:dc="http://purl.org/dc/elements/1.1/"><defs
     id="defs896"><clipPath
       clipPathUnits="userSpaceOnUse"
       id="clipPath1568"><path
         sodipodi:type="star"
         style="fill:#ffffff;fill-opacity:1;stroke:#000000;stroke-width:18.89763832;stroke-miterlimit:4;stroke-dasharray:none;stroke-opacity:1"
         id="path1570"
         sodipodi:sides="6"
         sodipodi:cx="387.14285"
         sodipodi:cy="374.47693"
         sodipodi:r1="360.10202"
         sodipodi:r2="311.85751"
         sodipodi:arg1="1.5707963"
         sodipodi:arg2="2.0943951"
         inkscape:flatsided="true"
         inkscape:rounded="0"
         inkscape:randomized="0"
         d="m 387.14286,734.57895 -311.8575,-180.051 -1e-5,-360.10202 311.85749,-180.051022 311.85751,180.051002 10e-6,360.10202 z"
         inkscape:transform-center-x="1.2571428e-06"
         clip-path="none"
         transform="matrix(0.35210519,0.35178423,-0.35178423,0.35210519,264.37957,-24.389724)" /></clipPath></defs><sodipodi:namedview
     id="base"
     pagecolor="#ffffff"
     bordercolor="#666666"
     borderopacity="1.0"
     inkscape:pageopacity="0.0"
     inkscape:pageshadow="2"
     inkscape:zoom="0.7"
     inkscape:cx="232.14286"
     inkscape:cy="360.71429"
     inkscape:document-units="mm"
     inkscape:current-layer="layer1"
     showgrid="false"
     inkscape:window-width="1920"
     inkscape:window-height="1008"
     inkscape:window-x="0"
     inkscape:window-y="0"
     inkscape:window-maximized="1"
     inkscape:snap-text-baseline="true"
     inkscape:showpageshadow="2"
     inkscape:pagecheckerboard="0"
     inkscape:deskcolor="#d1d1d1" /><metadata
     id="metadata899"><rdf:RDF><cc:Work
         rdf:about=""><dc:format>image/svg+xml</dc:format><dc:type
           rdf:resource="http://purl.org/dc/dcmitype/StillImage" /></cc:Work></rdf:RDF></metadata><g
     inkscape:label="Ebene 1"
     inkscape:groupmode="layer"
     id="layer1"
     transform="translate(0,-97)"><path
       id="path414"
       style="fill:#ececec;fill-opacity:1;fill-rule:evenodd;stroke:none;stroke-width:0.502343"
       d="M 99.443026 117.42304 L 96.596171 120.72465 L 93.388098 121.81451 L 86.535286 130.03261 L 86.581278 128.01671 L 84.318368 129.60628 L 83.286389 128.5743 L 80.449353 132.19268 L 72.12738 135.06951 L 66.686886 141.70425 L 61.462915 140.78751 L 54.453007 136.9464 L 53.672176 134.47782 L 49.996948 131.43356 L 37.366711 138.72562 L 36.695951 139.50438 L 39.987223 139.53849 L 45.271139 146.25694 L 47.242594 147.85478 L 48.634241 146.98196 L 48.143315 152.79763 L 50.261532 153.40741 L 47.924723 157.48985 L 50.18195 159.94448 L 45.072184 166.95955 L 46.007528 170.57794 L 42.853198 171.96855 L 37.732064 180.22283 L 43.288314 181.48011 L 42.428418 177.89584 L 44.153894 174.94098 L 45.709871 175.76005 L 46.538761 173.68369 L 47.290653 174.74202 L 49.482251 170.78103 L 52.603507 173.12817 L 50.885266 179.89778 L 44.161646 185.58219 L 45.623055 186.52684 L 48.614604 185.2096 L 44.803467 189.19851 L 45.961019 191.83607 L 48.203259 190.0553 L 45.275273 194.22921 L 46.291748 198.01089 L 44.171464 201.58328 L 44.206087 210.09646 L 40.899312 214.82433 L 43.004093 216.8485 L 42.072884 219.67572 L 44.826721 223.38143 L 47.016252 220.69994 L 45.881954 216.96632 L 46.451945 206.337 L 50.999471 193.25304 L 53.260832 192.65101 L 52.466565 188.98147 L 53.914022 186.82346 L 54.194108 192.13528 L 51.685734 195.90662 L 51.813375 203.82862 L 53.191069 203.44983 L 52.845353 200.95128 L 55.046252 197.97678 L 54.561528 203.85653 L 56.724186 203.95368 L 57.375309 196.62389 L 57.816109 196.83732 L 57.842981 200.90942 L 59.381388 205.55978 L 58.629496 211.1982 L 60.044397 208.95854 L 61.120817 210.34554 L 62.547087 203.14288 L 62.875749 204.10354 L 63.287093 219.41682 L 58.577303 224.81235 L 61.027799 226.5492 L 61.180762 229.33663 L 64.493221 229.07979 L 66.812459 237.34389 L 68.144161 232.70179 L 70.553833 232.90333 L 71.273169 229.50819 L 73.016215 231.04815 L 73.188298 233.0966 L 74.722571 231.55044 L 75.895626 232.64598 L 75.257939 239.68328 L 77.059379 243.24534 L 78.452576 242.7756 L 77.407161 236.31191 L 78.995695 233.49089 L 76.618579 225.63298 L 74.484859 225.45779 L 71.307792 221.84923 L 70.223621 214.29207 L 67.784493 213.2265 L 68.159664 209.05621 L 70.190548 206.84291 L 69.185958 203.29635 L 70.571403 206.26878 L 75.207812 207.10387 L 78.102726 210.48661 L 77.64694 212.20434 L 80.990405 218.51403 L 82.843522 231.38715 L 84.521456 231.53804 L 84.443941 226.96984 L 83.042993 225.75028 L 84.691471 225.06712 L 92.325114 234.35957 L 96.438041 244.17965 L 101.55194 251.74869 L 99.841451 254.5263 L 99.769621 258.56275 L 103.0304 260.59312 L 102.67849 257.67598 L 105.64678 255.34331 L 106.57437 257.95142 L 104.81996 260.26652 L 109.45017 265.11997 L 110.16175 270.97336 L 112.62 272.87195 L 112.33371 275.68935 L 120.53993 272.02136 L 127.95136 259.33169 L 126.38608 259.31516 L 120.52649 266.9302 L 118.1008 264.41562 L 116.13555 266.13128 L 115.42603 265.1732 L 118.03156 257.19539 L 116.39031 256.54788 L 115.52473 244.99407 L 119.12348 244.94446 L 120.66189 248.60418 L 122.08195 245.56199 L 117.60626 237.6462 L 113.68505 234.19163 L 114.40749 231.4104 L 112.35903 227.40341 L 114.46743 225.53686 L 116.18774 225.50895 L 120.72751 230.68486 L 122.58477 236.07833 L 127.9033 237.748 L 128.4733 240.37988 L 132.45445 242.74511 L 131.57905 246.379 L 136.93479 247.25543 L 138.42256 249.71006 L 142.34583 245.99452 L 144.44648 241.52761 L 145.35133 243.21691 L 143.99276 244.56774 L 147.69176 247.40529 L 147.27215 249.96947 L 150.75307 248.65276 L 148.02197 245.8953 L 150.11538 246.31957 L 153.58649 242.52807 L 159.11949 244.43855 L 170.37875 229.76502 L 165.13359 225.49552 L 161.11781 228.6793 L 160.62482 231.98866 L 155.88816 230.49418 L 157.04778 229.07359 L 153.86244 226.312 L 155.18846 223.43518 L 150.40684 218.36262 L 148.20956 218.70937 L 143.36283 211.16202 L 141.05134 209.87528 L 143.45326 208.71566 L 146.36419 211.55063 L 147.03082 209.91094 L 139.2499 198.54264 L 140.21418 197.22127 L 145.94251 198.15197 L 147.66489 201.58276 L 152.7669 206.23313 L 155.2329 206.65532 L 157.55007 205.93444 L 157.81672 204.15883 L 153.24439 196.25337 L 157.26792 194.30052 L 152.97361 190.41135 L 151.65741 194.11759 L 147.8871 192.62724 L 144.63407 185.47264 L 141.73347 185.53826 L 138.13885 179.47559 L 135.81342 178.57693 L 134.55354 174.47486 L 137.81588 178.70044 L 139.87415 178.63481 L 140.0576 181.97207 L 144.86041 183.12343 L 148.95577 186.8772 L 151.50083 184.3926 L 146.13423 180.45382 L 145.70894 178.32785 L 147.11764 177.52067 L 145.26607 176.37913 L 146.02571 174.3529 L 149.45444 174.6919 L 150.16913 176.42926 L 158.15107 175.40917 L 166.16764 177.29794 L 165.95524 175.11203 L 170.74823 175.59055 L 172.90883 173.51213 L 180.74194 172.85273 L 183.35522 166.79936 L 183.35522 166.67378 L 179.51462 170.10355 L 178.80149 166.74613 L 176.64658 166.4154 L 174.27722 168.49951 L 169.7085 167.05516 L 165.93199 168.45765 L 165.00647 166.89961 L 161.53123 168.68658 L 140.58935 161.68132 L 136.31623 164.9111 L 129.60036 162.13556 L 126.64498 164.25584 L 121.6086 160.51395 L 130.43132 160.60749 L 130.09128 158.8386 L 127.56896 157.57511 L 130.75584 154.5908 L 129.096 152.18371 L 125.58613 152.95524 L 122.38168 155.87806 L 119.19479 154.81404 L 115.66581 157.04336 L 111.83142 154.33759 L 109.1122 155.08276 L 107.52367 152.92734 L 104.72901 152.80383 L 104.24583 154.08489 L 100.12929 152.4669 L 99.524674 150.40863 L 97.373385 152.69996 L 93.098193 149.54615 L 85.30022 151.45662 L 82.252344 150.0164 L 83.622803 149.39267 L 82.049255 146.37011 L 79.24891 148.81699 L 74.084884 144.35577 L 78.425704 142.30008 L 83.871883 143.86587 L 93.747766 142.5011 L 94.59991 143.66072 L 94.760624 139.69403 L 98.797587 139.36486 L 97.518079 137.4704 L 98.386243 135.65707 L 107.09631 133.11924 L 109.18972 131.71829 L 109.15096 129.24196 L 114.70514 129.17013 L 114.18941 127.88494 L 112.16008 128.71796 L 108.09004 127.24156 L 106.18628 129.19803 L 99.476099 129.47502 L 97.012166 125.02826 L 100.67809 119.88181 L 99.443026 117.42304 z M 76.042904 150.17918 L 76.481637 150.31871 L 76.265112 150.53575 L 75.772119 150.25308 L 76.042904 150.17918 z M 72.583167 154.64041 L 73.505074 154.98871 L 73.047221 155.10033 L 72.484465 155.40729 L 72.583167 154.64041 z M 74.564441 156.05686 L 74.537052 156.43565 L 74.463672 156.29199 L 74.353601 156.17055 L 74.564441 156.05686 z M 80.18632 156.51678 L 80.201823 156.52298 L 80.280888 156.71832 L 80.238513 156.67646 L 80.18632 156.51678 z M 122.72171 166.46914 L 126.74007 168.33001 L 124.04979 167.70214 L 122.45506 166.80763 L 122.72171 166.46914 z M 136.31984 167.99515 L 136.51311 168.29797 L 136.24646 168.1662 L 136.08213 168.13829 L 136.31984 167.99515 z M 168.76903 169.62657 L 169.03361 170.7924 L 168.53545 171.11486 L 167.65798 170.41981 L 168.76903 169.62657 z M 170.14 169.83586 L 170.63661 170.6508 L 170.07644 171.29624 L 170.08109 170.58104 L 170.14 169.83586 z M 178.13538 169.92578 L 178.2625 170.06944 L 178.09662 170.06324 L 178.0806 170.04515 L 178.13538 169.92578 z M 89.441569 172.17526 L 89.543888 172.54733 L 89.426066 172.45999 L 89.451388 172.31427 L 89.441569 172.17526 z M 85.669189 172.22797 L 86.726489 172.69822 L 86.473275 172.68892 L 85.682625 172.56283 L 85.669189 172.22797 z M 87.367794 173.01965 L 88.239575 175.91663 L 90.183643 175.16732 L 88.58374 173.79066 L 96.683504 174.81489 L 100.26468 181.33594 L 106.16665 182.54723 L 108.7391 184.54969 L 109.19695 186.8927 L 118.55865 188.77941 L 124.86318 199.20151 L 127.11472 199.91258 L 127.14366 202.00496 L 132.89318 207.70125 L 131.72426 210.04013 L 125.86415 207.96222 L 124.35313 204.91176 L 120.37767 204.71022 L 118.95295 202.76977 L 119.80354 199.88468 L 118.6341 201.07633 L 113.58221 199.25112 L 111.02371 195.21881 L 105.15224 192.28204 L 105.34551 190.96119 L 99.383081 185.4499 L 103.54975 185.50623 L 104.56468 186.49841 L 105.81886 184.44221 L 99.06217 182.83249 L 97.872062 183.74664 L 96.428223 181.44342 L 93.111629 181.70077 L 92.354053 177.55271 L 90.465796 178.29375 L 85.642318 173.94414 L 87.367794 173.01965 z M 141.30404 178.80741 L 142.7825 179.92155 L 142.01924 179.94326 L 141.39137 179.30195 L 141.30404 178.80741 z M 143.89406 180.24195 L 144.09508 180.26779 L 144.03927 180.40938 L 143.94057 180.28381 L 143.89406 180.24195 z M 144.1204 181.29201 L 144.11937 181.29821 L 144.11833 181.29821 L 144.1204 181.29201 z M 59.835624 182.3519 L 59.920374 183.00767 L 59.38914 183.30636 L 59.226876 183.07123 L 59.835624 182.3519 z M 102.61596 184.64426 L 103.01025 184.6453 L 103.02059 184.70524 L 102.7343 184.73108 L 102.61596 184.64426 z M 69.181824 184.6732 L 70.693359 186.61985 L 69.724943 185.87468 L 69.390597 185.4561 L 69.181824 184.6732 z M 66.11276 195.93608 L 67.378833 196.29265 L 66.752515 197.33289 L 66.452791 196.39445 L 66.11276 195.93608 z M 68.733272 196.05184 L 68.924475 196.61562 L 68.675395 196.79908 L 68.758594 196.54793 L 68.733272 196.05184 z M 70.498022 197.70548 L 71.319161 198.15558 L 71.893286 202.36928 L 73.429626 203.91957 L 73.008464 205.3877 L 71.002384 201.69025 L 71.075765 200.49084 L 70.498022 197.70548 z M 85.97253 198.62584 L 88.2804 200.22161 L 88.396155 205.07299 L 86.816923 204.61307 L 86.564225 200.89133 L 85.97253 198.62584 z M 89.942314 199.92085 L 90.069954 201.03861 L 89.772298 200.66396 L 89.663778 200.51875 L 89.942314 199.92085 z M 90.174341 201.51093 L 90.546928 202.60854 L 90.182092 202.28763 L 90.129382 202.06077 L 90.174341 201.51093 z M 89.250366 202.7522 L 89.58678 203.05089 L 89.540271 203.59866 L 89.300492 203.30979 L 89.250366 202.7522 z M 90.589819 203.09688 L 91.136556 203.97538 L 90.31335 204.06117 L 90.493184 203.67669 L 90.589819 203.09688 z M 74.745825 203.87771 L 75.080172 204.40946 L 74.850212 204.98152 L 74.647123 204.75415 L 74.745825 203.87771 z M 134.737 205.90808 L 138.21172 214.42746 L 135.53333 212.63222 L 135.04809 209.98018 L 134.737 205.90808 z M 92.201607 208.50999 L 93.380347 209.76314 L 91.459534 211.29328 L 91.410958 209.24535 L 92.201607 208.50999 z M 132.13354 210.6158 L 133.70708 214.03265 L 132.46995 213.71432 L 130.87005 212.49062 L 132.13354 210.6158 z M 93.445976 214.39749 L 93.718827 214.60884 L 93.484733 214.81193 L 93.362777 214.55872 L 93.445976 214.39749 z M 144.67851 216.70846 L 145.07642 217.51564 L 144.71313 217.3601 L 144.63975 217.22677 L 144.67851 216.70846 z M 133.64766 218.03086 L 133.65282 218.15436 L 133.57531 218.14506 L 133.54275 218.04326 L 133.64766 218.03086 z M 113.59617 220.16716 L 113.99201 220.2333 L 113.66335 220.50616 L 113.49178 220.28085 L 113.59617 220.16716 z M 115.61155 220.52993 L 115.89939 220.65343 L 115.72575 220.88081 L 115.61155 220.52993 z M 103.51151 220.70718 L 104.07168 222.06782 L 103.15753 221.42651 L 102.9007 221.32678 L 103.51151 220.70718 z M 144.3116 221.06375 L 146.18798 221.49214 L 145.97714 222.37684 L 144.14521 222.15153 L 144.3116 221.06375 z M 147.51399 221.57586 L 150.15208 222.51637 L 148.34082 222.63419 L 147.61993 221.81305 L 147.51399 221.57586 z M 116.9355 222.24559 L 118.93589 224.21187 L 118.25531 223.80931 L 117.44399 222.91273 L 116.9355 222.24559 z M 104.38278 222.42077 L 107.9717 224.2837 L 109.81397 227.41168 L 109.2941 230.14329 L 107.61824 229.35626 L 106.21522 224.95291 L 104.38278 222.42077 z M 122.61939 222.78509 L 124.09578 222.97061 L 126.38815 227.88193 L 124.50403 226.24017 L 124.23531 225.44332 L 122.61939 222.78509 z M 119.17567 224.35347 L 119.74566 224.68988 L 119.93118 224.86765 L 119.17567 224.35347 z M 147.17758 225.24592 L 150.60993 227.15433 L 148.58835 227.51503 L 147.69538 226.01486 L 147.17758 225.24592 z M 134.85275 227.66644 L 135.45736 230.49573 L 134.25537 229.85597 L 134.26571 227.94343 L 134.85275 227.66644 z M 149.06377 228.31447 L 149.24154 228.60489 L 148.73717 228.57543 L 148.64261 228.44572 L 149.06377 228.31447 z M 127.8878 229.3144 L 128.22783 229.80636 L 127.7891 229.99963 L 126.78606 229.80636 L 127.8878 229.3144 z M 164.00704 230.34018 L 164.31038 230.83059 L 163.5373 231.31842 L 163.75951 231.04556 L 164.00704 230.34018 z M 152.19484 230.86625 L 152.57518 232.23722 L 151.27294 232.15144 L 151.08328 231.45226 L 152.19484 230.86625 z M 140.56971 232.25324 L 140.79967 232.36486 L 140.63173 232.47442 L 140.58418 232.40465 L 140.56971 232.25324 z M 102.89501 232.70748 L 106.62088 234.39265 L 104.48923 234.73578 L 104.02931 237.26792 L 103.00508 235.2913 L 102.89501 232.70748 z M 156.19718 233.20151 L 156.38064 233.37462 L 156.2747 233.37462 L 156.19822 233.28522 L 156.19718 233.20151 z M 141.72572 233.44645 L 142.47141 233.90069 L 142.22439 234.14202 L 141.76809 233.87485 L 141.72572 233.44645 z M 109.83516 234.02419 L 111.93167 239.72049 L 108.12828 238.94327 L 109.81552 238.32574 L 109.83516 234.02419 z M 161.7586 234.75128 L 161.76894 234.81123 L 161.71313 234.78746 L 161.7586 234.75128 z M 141.2906 236.97802 L 142.23783 237.46998 L 141.70815 237.47876 L 141.08389 237.34544 L 141.2906 236.97802 z M 109.94316 243.02778 L 112.36472 243.58588 L 112.25878 246.30148 L 111.42576 244.2768 L 109.94316 243.02778 z M 107.10819 247.18773 L 107.0467 247.27765 L 107.03636 247.20168 L 107.10819 247.18773 z M 103.19835 247.42286 L 105.42457 250.13639 L 107.73038 249.25996 L 109.84446 251.03298 L 107.87145 254.07155 L 105.2313 252.86801 L 105.78631 251.45931 L 103.19835 247.42286 z M 112.69338 248.93905 L 112.96416 252.13317 L 114.63951 253.21475 L 113.91501 254.70304 L 111.07591 253.93616 L 112.14251 250.92342 L 112.69338 248.93905 z M 108.29261 255.67352 L 111.65158 256.41042 L 113.90106 259.36322 L 112.04226 262.00337 L 112.72439 266.00209 L 114.92167 267.98853 L 114.0597 269.07994 L 109.00988 260.32181 L 108.29261 255.67352 z M 118.27288 267.97613 L 119.67383 269.03653 L 118.82582 269.85302 L 117.1944 268.85308 L 118.27288 267.97613 z M 112.2624 270.05817 L 112.18127 271.28962 L 111.94924 270.63591 L 111.63246 270.38683 L 112.2624 270.05817 z " /><path
       id="path414-2"
       style="fill:#6394eb;fill-opacity:1;fill-rule:evenodd;stroke:none;stroke-width:0.502343"
       d="m 102.02594,116.55801 -2.846859,3.30161 -3.20807,1.08986 -6.85281,8.2181 0.046,-2.0159 -2.262912,1.58957 -1.031979,-1.03198 -2.837036,3.61838 -8.321973,2.87683 -5.440494,6.63474 -5.223971,-0.91674 -7.009908,-3.84111 -0.780831,-2.46858 -3.675228,-3.04426 -12.630237,7.29206 -0.67076,0.77876 3.291272,0.0341 5.283916,6.71845 1.971455,1.59784 1.391647,-0.87282 -0.490926,5.81567 2.118217,0.60978 -2.336809,4.08244 2.257227,2.45463 -5.109766,7.01507 0.935344,3.61839 -3.15433,1.39061 -5.121134,8.25428 5.55625,1.25728 -0.859896,-3.58427 1.725476,-2.95486 1.555977,0.81907 0.82889,-2.07636 0.751892,1.05833 2.191598,-3.96099 3.121256,2.34714 -1.718241,6.76961 -6.72362,5.68441 1.461409,0.94465 2.991549,-1.31724 -3.811137,3.98891 1.157552,2.63756 2.24224,-1.78077 -2.927986,4.17391 1.016475,3.78168 -2.120284,3.57239 0.03462,8.51318 -3.306775,4.72787 2.104781,2.02417 -0.931209,2.82722 2.753837,3.70571 2.189531,-2.68149 -1.134298,-3.73362 0.569991,-10.62932 4.547526,-13.08396 2.261361,-0.60203 -0.794267,-3.66954 1.447457,-2.15801 0.280086,5.31182 -2.508374,3.77134 0.127641,7.922 1.377694,-0.37879 -0.345716,-2.49855 2.200899,-2.9745 -0.484724,5.87975 2.162658,0.0971 0.651123,-7.32979 0.4408,0.21343 0.02687,4.0721 1.538407,4.65036 -0.751892,5.63842 1.414901,-2.23966 1.07642,1.387 1.42627,-7.20266 0.328662,0.96066 0.411344,15.31328 -4.70979,5.39553 2.450496,1.73685 0.152963,2.78743 3.312459,-0.25684 2.319238,8.2641 1.331702,-4.6421 2.409672,0.20154 0.719336,-3.39514 1.743046,1.53996 0.172083,2.04845 1.534273,-1.54616 1.173055,1.09554 -0.637687,7.0373 1.80144,3.56206 1.393197,-0.46974 -1.045415,-6.46369 1.588534,-2.82102 -2.377116,-7.85791 -2.13372,-0.17519 -3.177067,-3.60856 -1.084171,-7.55716 -2.439128,-1.06557 0.375171,-4.17029 2.030884,-2.2133 -1.00459,-3.54656 1.385445,2.97243 4.636409,0.83509 2.894914,3.38274 -0.455786,1.71773 3.343465,6.30969 1.853117,12.87312 1.677934,0.15089 -0.07752,-4.5682 -1.400948,-1.21956 1.648478,-0.68316 7.633639,9.29245 4.11293,9.82008 5.113899,7.56904 -1.71049,2.77761 -0.0718,4.03645 3.26078,2.03037 -0.35191,-2.91714 2.96829,-2.33267 0.92759,2.60811 -1.75441,2.3151 4.63021,4.85345 0.71158,5.85339 2.45825,1.89859 -0.28629,2.8174 8.20622,-3.66799 7.41143,-12.68967 -1.56528,-0.0165 -5.85959,7.61504 -2.42569,-2.51458 -1.96525,1.71566 -0.70952,-0.95808 2.60553,-7.97781 -1.64125,-0.64751 -0.86558,-11.55381 3.59875,-0.0496 1.53841,3.65972 1.42006,-3.04219 -4.47569,-7.91579 -3.92121,-3.45457 0.72244,-2.78123 -2.04846,-4.00699 2.1084,-1.86655 1.72031,-0.0279 4.53977,5.17591 1.85726,5.39347 5.31853,1.66967 0.57,2.63188 3.98115,2.36523 -0.8754,3.63389 5.35574,0.87643 1.48777,2.45463 3.92327,-3.71554 2.10065,-4.46691 0.90485,1.6893 -1.35857,1.35083 3.699,2.83755 -0.41961,2.56418 3.48092,-1.31671 -2.7311,-2.75746 2.09341,0.42427 3.47111,-3.7915 5.533,1.91048 11.25926,-14.67353 -5.24516,-4.2695 -4.01578,3.18378 -0.49299,3.30936 -4.73666,-1.49448 1.15962,-1.42059 -3.18534,-2.76159 1.32602,-2.87682 -4.78162,-5.07256 -2.19728,0.34675 -4.84673,-7.54735 -2.31149,-1.28674 2.40192,-1.15962 2.91093,2.83497 0.66663,-1.63969 -7.78092,-11.3683 0.96428,-1.32137 5.72833,0.9307 1.72238,3.43079 5.10201,4.65037 2.466,0.42219 2.31717,-0.72088 0.26665,-1.77561 -4.57233,-7.90546 4.02353,-1.95285 -4.29431,-3.88917 -1.3162,3.70624 -3.77031,-1.49035 -3.25303,-7.1546 -2.9006,0.0656 -3.59462,-6.06267 -2.32543,-0.89866 -1.25988,-4.10207 3.26234,4.22558 2.05827,-0.0656 0.18345,3.33726 4.80281,1.15136 4.09536,3.75377 2.54506,-2.4846 -5.3666,-3.93878 -0.42529,-2.12597 1.4087,-0.80718 -1.85157,-1.14154 0.75964,-2.02623 3.42873,0.339 0.71469,1.73736 7.98194,-1.02009 8.01657,1.88877 -0.2124,-2.18591 4.79299,0.47852 2.1606,-2.07842 7.83311,-0.6594 2.61328,-6.05337 v -0.12558 l -3.8406,3.42977 -0.71313,-3.35742 -2.15491,-0.33073 -2.36936,2.08411 -4.56872,-1.44435 -3.77651,1.40249 -0.92552,-1.55804 -3.47524,1.78697 -20.94188,-7.00526 -4.27312,3.22978 -6.71587,-2.77554 -2.95538,2.12028 -5.03638,-3.74189 8.82272,0.0935 -0.34004,-1.76889 -2.52232,-1.26349 3.18688,-2.98431 -1.65984,-2.40709 -3.50987,0.77153 -3.20445,2.92282 -3.18689,-1.06402 -3.52898,2.22932 -3.83439,-2.70577 -2.71922,0.74517 -1.58853,-2.15542 -2.79466,-0.12351 -0.48318,1.28106 -4.11654,-1.61799 -0.60462,-2.05827 -2.151289,2.29133 -4.27519,-3.15381 -7.79797,1.91047 -3.047876,-1.44022 1.370459,-0.62373 -1.573548,-3.02256 -2.800345,2.44688 -5.164026,-4.46122 4.34082,-2.05569 5.446179,1.56579 9.875887,-1.36477 0.85214,1.15962 0.16071,-3.96669 4.036969,-0.32917 -1.27951,-1.89446 0.86816,-1.81333 8.71007,-2.53783 2.09341,-1.40095 -0.0388,-2.47633 5.55418,-0.0718 -0.51573,-1.28519 -2.02933,0.83302 -4.07004,-1.4764 -1.90376,1.95647 -6.71018,0.27699 -2.463929,-4.44676 3.665919,-5.14645 z m -23.400123,32.75614 0.438733,0.13953 -0.216525,0.21704 -0.492993,-0.28267 z m -3.459737,4.46123 0.921907,0.3483 -0.457853,0.11162 -0.562756,0.30696 z m 1.981274,1.41645 -0.02739,0.37879 -0.07338,-0.14366 -0.110071,-0.12144 z m 5.621879,0.45992 0.0155,0.006 0.07906,0.19534 -0.04238,-0.0419 z m 42.535387,9.95236 4.01836,1.86087 -2.69028,-0.62787 -1.59473,-0.89451 z m 13.59813,1.52601 0.19327,0.30282 -0.26665,-0.13177 -0.16433,-0.0279 z m 32.44919,1.63142 0.26458,1.16583 -0.49816,0.32246 -0.87747,-0.69505 z m 1.37097,0.20929 0.49661,0.81494 -0.56017,0.64544 0.005,-0.7152 z m 7.99538,0.0899 0.12712,0.14366 -0.16588,-0.006 -0.016,-0.0181 z m -88.693809,2.24948 0.10232,0.37207 -0.11782,-0.0873 0.0253,-0.14572 z m -3.772379,0.0527 1.057299,0.47025 -0.25321,-0.009 -0.790653,-0.12609 z m 1.698609,0.79168 0.87178,2.89698 1.94407,-0.74931 -1.59991,-1.37666 8.09977,1.02423 3.581169,6.52105 5.90197,1.21129 2.57245,2.00246 0.45785,2.34301 9.3617,1.88671 6.30453,10.4221 2.25154,0.71107 0.0289,2.09238 5.74952,5.69629 -1.16892,2.33888 -5.86011,-2.07791 -1.51102,-3.05046 -3.97546,-0.20154 -1.42472,-1.94045 0.85059,-2.88509 -1.16944,1.19165 -5.05189,-1.82521 -2.5585,-4.03231 -5.87147,-2.93677 0.19327,-1.32085 -5.96243,-5.51129 4.16667,0.0563 1.01493,0.99218 1.25418,-2.0562 -6.75669,-1.60972 -1.19011,0.91415 -1.443829,-2.30322 -3.3166,0.25735 -0.75757,-4.14806 -1.88826,0.74104 -4.82348,-4.34961 z m 53.936239,5.78776 1.47846,1.11414 -0.76326,0.0217 -0.62787,-0.64131 z m 2.59002,1.43454 0.20102,0.0258 -0.0558,0.14159 -0.0987,-0.12557 z m 0.22634,1.05006 -10e-4,0.006 h -0.001 z m -84.284773,1.05989 0.08475,0.65577 -0.531234,0.29869 -0.162264,-0.23513 z m 42.780333,2.29236 0.39429,0.001 0.0103,0.0599 -0.28629,0.0258 z m -33.434133,0.0289 1.511535,1.94665 -0.968416,-0.74517 -0.334346,-0.41858 z m -3.069064,11.26288 1.266073,0.35657 -0.626318,1.04024 -0.299724,-0.93844 z m 2.620512,0.11576 0.191203,0.56378 -0.24908,0.18346 0.0832,-0.25115 z m 1.76475,1.65364 0.821139,0.4501 0.574125,4.2137 1.53634,1.55029 -0.421162,1.46813 -2.00608,-3.69745 0.07338,-1.19941 z m 15.474508,0.92036 2.307868,1.59577 0.11576,4.85138 -1.57923,-0.45992 -0.2527,-3.72174 z m 3.969788,1.29501 0.12764,1.11776 -0.29766,-0.37465 -0.10852,-0.14521 z m 0.23202,1.59008 0.37259,1.09761 -0.36484,-0.32091 -0.0527,-0.22686 z m -0.92397,1.24127 0.33641,0.29869 -0.0465,0.54777 -0.23978,-0.28887 z m 1.33945,0.34468 0.54674,0.8785 -0.82321,0.0858 0.17984,-0.38448 z m -15.843993,0.78083 0.334347,0.53175 -0.22996,0.57206 -0.203089,-0.22737 z m 59.991172,2.03037 3.47472,8.51938 -2.67839,-1.79524 -0.48524,-2.65204 z m -42.535389,2.60191 1.17874,1.25315 -1.92081,1.53014 -0.0486,-2.04793 z m 39.931929,2.10581 1.57354,3.41685 -1.23713,-0.31833 -1.5999,-1.2237 z m -38.687559,3.78169 0.27285,0.21135 -0.23409,0.20309 -0.12196,-0.25321 z m 51.232529,2.31097 0.39791,0.80718 -0.36329,-0.15554 -0.0734,-0.13333 z m -11.03085,1.3224 0.005,0.1235 -0.0775,-0.009 -0.0326,-0.1018 z m -20.05149,2.1363 0.39584,0.0661 -0.32866,0.27286 -0.17157,-0.22531 z m 2.01538,0.36277 0.28784,0.1235 -0.17364,0.22738 z m -12.10004,0.17725 0.56017,1.36064 -0.91415,-0.64131 -0.25683,-0.0997 z m 40.80009,0.35657 1.87638,0.42839 -0.21084,0.8847 -1.83193,-0.22531 z m 3.20239,0.51211 2.63809,0.94051 -1.81126,0.11782 -0.72089,-0.82114 z m -30.57849,0.66973 2.00039,1.96628 -0.68058,-0.40256 -0.81132,-0.89658 z m -12.55272,0.17518 3.58892,1.86293 1.84227,3.12798 -0.51987,2.73161 -1.67586,-0.78703 -1.40302,-4.40335 z m 18.23661,0.36432 1.47639,0.18552 2.29237,4.91132 -1.88412,-1.64176 -0.26872,-0.79685 z m -3.44372,1.56838 0.56999,0.33641 0.18552,0.17777 z m 28.00191,0.89245 3.43235,1.90841 -2.02158,0.3607 -0.89297,-1.50017 z m -12.32483,2.42052 0.60461,2.82929 -1.20199,-0.63976 0.0103,-1.91254 z m 14.21102,0.64803 0.17777,0.29042 -0.50437,-0.0295 -0.0946,-0.12971 z m -21.17597,0.99993 0.34003,0.49196 -0.43873,0.19327 -1.00304,-0.19327 z m 36.11924,1.02578 0.30334,0.49041 -0.77308,0.48783 0.22221,-0.27286 z m -11.8122,0.52607 0.38034,1.37097 -1.30224,-0.0858 -0.18966,-0.69918 z m -11.62513,1.38699 0.22996,0.11162 -0.16794,0.10956 -0.0476,-0.0698 z m -37.6747,0.45424 3.72587,1.68517 -2.13165,0.34313 -0.45992,2.53214 -1.02423,-1.97662 z m 53.30217,0.49403 0.18346,0.17311 h -0.10594 l -0.0765,-0.0894 z m -14.47146,0.24494 0.74569,0.45424 -0.24702,0.24133 -0.4563,-0.26717 z m -31.89056,0.57774 2.09651,5.6963 -3.80339,-0.77722 1.68724,-0.61753 z m 51.92344,0.72709 0.0103,0.0599 -0.0558,-0.0238 z m -20.468,2.22674 0.94723,0.49196 -0.52968,0.009 -0.62426,-0.13332 z m -31.34744,6.04976 2.42156,0.5581 -0.10594,2.7156 -0.83302,-2.02468 z m -2.83497,4.15995 -0.0615,0.0899 -0.0103,-0.076 z m -3.90984,0.23513 2.22622,2.71353 2.30581,-0.87643 2.11408,1.77302 -1.97301,3.03857 -2.64015,-1.20354 0.55501,-1.4087 z m 9.49503,1.51619 0.27078,3.19412 1.67535,1.08158 -0.7245,1.48829 -2.8391,-0.76688 1.0666,-3.01274 z m -4.40077,6.73447 3.35897,0.7369 2.24948,2.9528 -1.8588,2.64015 0.68213,3.99872 2.19728,1.98644 -0.86197,1.09141 -5.04982,-8.75813 z m 9.98027,12.30261 1.40095,1.0604 -0.84801,0.81649 -1.63142,-0.99994 z m -6.01048,2.08204 -0.0811,1.23145 -0.23203,-0.65371 -0.31678,-0.24908 z" /><path
       sodipodi:type="star"
       style="fill:none;fill-opacity:1;stroke:#000000;stroke-width:4;stroke-miterlimit:4;stroke-dasharray:none;stroke-opacity:1"
       id="path904-0"
       sodipodi:sides="6"
       sodipodi:cx="100.84282"
       sodipodi:cy="197.35464"
       sodipodi:r1="95.276993"
       sodipodi:r2="82.512299"
       sodipodi:arg1="1.5707963"
       sodipodi:arg2="2.0943951"
       inkscape:flatsided="true"
       inkscape:rounded="0"
       inkscape:randomized="0"
       d="m 100.84282,292.63164 -82.512296,-47.6385 -2e-6,-95.27699 82.512298,-47.6385 82.51229,47.6385 1e-5,95.27699 z"
       inkscape:transform-center-x="1.2571428e-06"
       clip-path="none" /><flowRoot
       xml:space="preserve"
       id="flowRoot1572"
       style="font-style:normal;font-variant:normal;font-weight:normal;font-stretch:normal;font-size:40px;line-height:1.25;font-family:'Asimov Pro';-inkscape-font-specification:'Asimov Pro, Normal';font-variant-ligatures:normal;font-variant-caps:normal;font-variant-numeric:normal;font-variant-east-asian:normal;letter-spacing:0px;word-spacing:0px;fill:#000000;fill-opacity:1;stroke:none"
       transform="matrix(0.81811124,0,0,0.81811124,-207.82361,-196.18084)"><flowRegion
         id="flowRegion1574"
         style="font-style:normal;font-variant:normal;font-weight:normal;font-stretch:normal;font-size:40px;font-family:'Asimov Pro';-inkscape-font-specification:'Asimov Pro, Normal';font-variant-ligatures:normal;font-variant-caps:normal;font-variant-numeric:normal;font-variant-east-asian:normal;fill:#000000;fill-opacity:1"><rect
           id="rect1576"
           width="487.01627"
           height="74.404915"
           x="133.73489"
           y="494.53864"
           style="font-style:normal;font-variant:normal;font-weight:normal;font-stretch:normal;font-family:'Asimov Pro';-inkscape-font-specification:'Asimov Pro, Normal';fill:#000000;fill-opacity:1;font-size:39.99999935px;font-variant-ligatures:normal;font-variant-caps:normal;font-variant-numeric:normal;font-variant-east-asian:normal" /></flowRegion><flowPara
         id="flowPara1578"
         style="font-style:normal;font-variant:normal;font-weight:normal;font-stretch:normal;font-size:40px;font-family:'Asimov Pro';-inkscape-font-specification:'Asimov Pro, Normal';font-variant-ligatures:normal;font-variant-caps:normal;font-variant-numeric:normal;font-variant-east-asian:normal;text-align:center;text-anchor:middle;fill:#000000;fill-opacity:1">floodmapr</flowPara></flowRoot></g></svg>
