<?xml version="1.0" encoding="UTF-8" standalone="no"?>
<!-- Created with Inkscape (http://www.inkscape.org/) -->

<svg
   width="200mm"
   height="200mm"
   viewBox="0 0 200 200"
   version="1.1"
   id="svg902"
   sodipodi:docname="FloodmaprLogo.svg"
   inkscape:version="1.2.1 (9c6d41e, 2022-07-14)"
   xml:space="preserve"
   inkscape:export-filename="FloodmaprLogo.png"
   inkscape:export-xdpi="97.68"
   inkscape:export-ydpi="97.68"
   xmlns:inkscape="http://www.inkscape.org/namespaces/inkscape"
   xmlns:sodipodi="http://sodipodi.sourceforge.net/DTD/sodipodi-0.dtd"
   xmlns="http://www.w3.org/2000/svg"
   xmlns:svg="http://www.w3.org/2000/svg"
   xmlns:rdf="http://www.w3.org/1999/02/22-rdf-syntax-ns#"
   xmlns:cc="http://creativecommons.org/ns#"
   xmlns:dc="http://purl.org/dc/elements/1.1/"><defs
     id="defs896"><clipPath
       clipPathUnits="userSpaceOnUse"
       id="clipPath1568"><path
         sodipodi:type="star"
         style="fill:#ffffff;fill-opacity:1;stroke:#000000;stroke-width:18.89763832;stroke-miterlimit:4;stroke-dasharray:none;stroke-opacity:1"
         id="path1570"
         sodipodi:sides="6"
         sodipodi:cx="387.14285"
         sodipodi:cy="374.47693"
         sodipodi:r1="360.10202"
         sodipodi:r2="311.85751"
         sodipodi:arg1="1.5707963"
         sodipodi:arg2="2.0943951"
         inkscape:flatsided="true"
         inkscape:rounded="0"
         inkscape:randomized="0"
         d="m 387.14286,734.57895 -311.8575,-180.051 -1e-5,-360.10202 311.85749,-180.051022 311.85751,180.051002 10e-6,360.10202 z"
         inkscape:transform-center-x="1.2571428e-06"
         clip-path="none"
         transform="matrix(0.35210519,0.35178423,-0.35178423,0.35210519,264.37957,-24.389724)" /></clipPath></defs><sodipodi:namedview
     id="base"
     pagecolor="#ffffff"
     bordercolor="#666666"
     borderopacity="1.0"
     inkscape:pageopacity="0.0"
     inkscape:pageshadow="2"
     inkscape:zoom="0.7"
     inkscape:cx="232.14286"
     inkscape:cy="360.71429"
     inkscape:document-units="mm"
     inkscape:current-layer="layer1"
     showgrid="false"
     inkscape:window-width="1920"
     inkscape:window-height="1055"
     inkscape:window-x="0"
     inkscape:window-y="0"
     inkscape:window-maximized="1"
     inkscape:snap-text-baseline="true"
     inkscape:showpageshadow="2"
     inkscape:pagecheckerboard="0"
     inkscape:deskcolor="#d1d1d1" /><metadata
     id="metadata899"><rdf:RDF><cc:Work
         rdf:about=""><dc:format>image/svg+xml</dc:format><dc:type
           rdf:resource="http://purl.org/dc/dcmitype/StillImage" /><dc:title /></cc:Work></rdf:RDF></metadata><g
     inkscape:label="Ebene 1"
     inkscape:groupmode="layer"
     id="layer1"
     transform="translate(0,-97)"><path
       id="path414"
       style="fill:#6394eb;fill-opacity:1;fill-rule:evenodd;stroke:none;stroke-width:0.502343"
       d="M 99.443026 117.42304 L 96.596171 120.72465 L 93.388098 121.81451 L 86.535286 130.03261 L 86.581278 128.01671 L 84.318368 129.60628 L 83.286389 128.5743 L 80.449353 132.19268 L 72.12738 135.06951 L 66.686886 141.70425 L 61.462915 140.78751 L 54.453007 136.9464 L 53.672176 134.47782 L 49.996948 131.43356 L 37.366711 138.72562 L 36.695951 139.50438 L 39.987223 139.53849 L 45.271139 146.25694 L 47.242594 147.85478 L 48.634241 146.98196 L 48.143315 152.79763 L 50.261532 153.40741 L 47.924723 157.48985 L 50.18195 159.94448 L 45.072184 166.95955 L 46.007528 170.57794 L 42.853198 171.96855 L 37.732064 180.22283 L 43.288314 181.48011 L 42.428418 177.89584 L 44.153894 174.94098 L 45.709871 175.76005 L 46.538761 173.68369 L 47.290653 174.74202 L 49.482251 170.78103 L 52.603507 173.12817 L 50.885266 179.89778 L 44.161646 185.58219 L 45.623055 186.52684 L 48.614604 185.2096 L 44.803467 189.19851 L 45.961019 191.83607 L 48.203259 190.0553 L 45.275273 194.22921 L 46.291748 198.01089 L 44.171464 201.58328 L 44.206087 210.09646 L 40.899312 214.82433 L 43.004093 216.8485 L 42.072884 219.67572 L 44.826721 223.38143 L 47.016252 220.69994 L 45.881954 216.96632 L 46.451945 206.337 L 50.999471 193.25304 L 53.260832 192.65101 L 52.466565 188.98147 L 53.914022 186.82346 L 54.194108 192.13528 L 51.685734 195.90662 L 51.813375 203.82862 L 53.191069 203.44983 L 52.845353 200.95128 L 55.046252 197.97678 L 54.561528 203.85653 L 56.724186 203.95368 L 57.375309 196.62389 L 57.816109 196.83732 L 57.842981 200.90942 L 59.381388 205.55978 L 58.629496 211.1982 L 60.044397 208.95854 L 61.120817 210.34554 L 62.547087 203.14288 L 62.875749 204.10354 L 63.287093 219.41682 L 58.577303 224.81235 L 61.027799 226.5492 L 61.180762 229.33663 L 64.493221 229.07979 L 66.812459 237.34389 L 68.144161 232.70179 L 70.553833 232.90333 L 71.273169 229.50819 L 73.016215 231.04815 L 73.188298 233.0966 L 74.722571 231.55044 L 75.895626 232.64598 L 75.257939 239.68328 L 77.059379 243.24534 L 78.452576 242.7756 L 77.407161 236.31191 L 78.995695 233.49089 L 76.618579 225.63298 L 74.484859 225.45779 L 71.307792 221.84923 L 70.223621 214.29207 L 67.784493 213.2265 L 68.159664 209.05621 L 70.190548 206.84291 L 69.185958 203.29635 L 70.571403 206.26878 L 75.207812 207.10387 L 78.102726 210.48661 L 77.64694 212.20434 L 80.990405 218.51403 L 82.843522 231.38715 L 84.521456 231.53804 L 84.443941 226.96984 L 83.042993 225.75028 L 84.691471 225.06712 L 92.325114 234.35957 L 96.438041 244.17965 L 101.55194 251.74869 L 99.841451 254.5263 L 99.769621 258.56275 L 103.0304 260.59312 L 102.67849 257.67598 L 105.64678 255.34331 L 106.57437 257.95142 L 104.81996 260.26652 L 109.45017 265.11997 L 110.16175 270.97336 L 112.62 272.87195 L 112.33371 275.68935 L 120.53993 272.02136 L 127.95136 259.33169 L 126.38608 259.31516 L 120.52649 266.9302 L 118.1008 264.41562 L 116.13555 266.13128 L 115.42603 265.1732 L 118.03156 257.19539 L 116.39031 256.54788 L 115.52473 244.99407 L 119.12348 244.94446 L 120.66189 248.60418 L 122.08195 245.56199 L 117.60626 237.6462 L 113.68505 234.19163 L 114.40749 231.4104 L 112.35903 227.40341 L 114.46743 225.53686 L 116.18774 225.50895 L 120.72751 230.68486 L 122.58477 236.07833 L 127.9033 237.748 L 128.4733 240.37988 L 132.45445 242.74511 L 131.57905 246.379 L 136.93479 247.25543 L 138.42256 249.71006 L 142.34583 245.99452 L 144.44648 241.52761 L 145.35133 243.21691 L 143.99276 244.56774 L 147.69176 247.40529 L 147.27215 249.96947 L 150.75307 248.65276 L 148.02197 245.8953 L 150.11538 246.31957 L 153.58649 242.52807 L 159.11949 244.43855 L 170.37875 229.76502 L 165.13359 225.49552 L 161.11781 228.6793 L 160.62482 231.98866 L 155.88816 230.49418 L 157.04778 229.07359 L 153.86244 226.312 L 155.18846 223.43518 L 150.40684 218.36262 L 148.20956 218.70937 L 143.36283 211.16202 L 141.05134 209.87528 L 143.45326 208.71566 L 146.36419 211.55063 L 147.03082 209.91094 L 139.2499 198.54264 L 140.21418 197.22127 L 145.94251 198.15197 L 147.66489 201.58276 L 152.7669 206.23313 L 155.2329 206.65532 L 157.55007 205.93444 L 157.81672 204.15883 L 153.24439 196.25337 L 157.26792 194.30052 L 152.97361 190.41135 L 151.65741 194.11759 L 147.8871 192.62724 L 144.63407 185.47264 L 141.73347 185.53826 L 138.13885 179.47559 L 135.81342 178.57693 L 134.55354 174.47486 L 137.81588 178.70044 L 139.87415 178.63481 L 140.0576 181.97207 L 144.86041 183.12343 L 148.95577 186.8772 L 151.50083 184.3926 L 146.13423 180.45382 L 145.70894 178.32785 L 147.11764 177.52067 L 145.26607 176.37913 L 146.02571 174.3529 L 149.45444 174.6919 L 150.16913 176.42926 L 158.15107 175.40917 L 166.16764 177.29794 L 165.95524 175.11203 L 170.74823 175.59055 L 172.90883 173.51213 L 180.74194 172.85273 L 183.35522 166.79936 L 183.35522 166.67378 L 179.51462 170.10355 L 178.80149 166.74613 L 176.64658 166.4154 L 174.27722 168.49951 L 169.7085 167.05516 L 165.93199 168.45765 L 165.00647 166.89961 L 161.53123 168.68658 L 140.58935 161.68132 L 136.31623 164.9111 L 129.60036 162.13556 L 126.64498 164.25584 L 121.6086 160.51395 L 130.43132 160.60749 L 130.09128 158.8386 L 127.56896 157.57511 L 130.75584 154.5908 L 129.096 152.18371 L 125.58613 152.95524 L 122.38168 155.87806 L 119.19479 154.81404 L 115.66581 157.04336 L 111.83142 154.33759 L 109.1122 155.08276 L 107.52367 152.92734 L 104.72901 152.80383 L 104.24583 154.08489 L 100.12929 152.4669 L 99.524674 150.40863 L 97.373385 152.69996 L 93.098193 149.54615 L 85.30022 151.45662 L 82.252344 150.0164 L 83.622803 149.39267 L 82.049255 146.37011 L 79.24891 148.81699 L 74.084884 144.35577 L 78.425704 142.30008 L 83.871883 143.86587 L 93.747766 142.5011 L 94.59991 143.66072 L 94.760624 139.69403 L 98.797587 139.36486 L 97.518079 137.4704 L 98.386243 135.65707 L 107.09631 133.11924 L 109.18972 131.71829 L 109.15096 129.24196 L 114.70514 129.17013 L 114.18941 127.88494 L 112.16008 128.71796 L 108.09004 127.24156 L 106.18628 129.19803 L 99.476099 129.47502 L 97.012166 125.02826 L 100.67809 119.88181 L 99.443026 117.42304 z M 76.042904 150.17918 L 76.481637 150.31871 L 76.265112 150.53575 L 75.772119 150.25308 L 76.042904 150.17918 z M 72.583167 154.64041 L 73.505074 154.98871 L 73.047221 155.10033 L 72.484465 155.40729 L 72.583167 154.64041 z M 74.564441 156.05686 L 74.537052 156.43565 L 74.463672 156.29199 L 74.353601 156.17055 L 74.564441 156.05686 z M 80.18632 156.51678 L 80.201823 156.52298 L 80.280888 156.71832 L 80.238513 156.67646 L 80.18632 156.51678 z M 122.72171 166.46914 L 126.74007 168.33001 L 124.04979 167.70214 L 122.45506 166.80763 L 122.72171 166.46914 z M 136.31984 167.99515 L 136.51311 168.29797 L 136.24646 168.1662 L 136.08213 168.13829 L 136.31984 167.99515 z M 168.76903 169.62657 L 169.03361 170.7924 L 168.53545 171.11486 L 167.65798 170.41981 L 168.76903 169.62657 z M 170.14 169.83586 L 170.63661 170.6508 L 170.07644 171.29624 L 170.08109 170.58104 L 170.14 169.83586 z M 178.13538 169.92578 L 178.2625 170.06944 L 178.09662 170.06324 L 178.0806 170.04515 L 178.13538 169.92578 z M 89.441569 172.17526 L 89.543888 172.54733 L 89.426066 172.45999 L 89.451388 172.31427 L 89.441569 172.17526 z M 85.669189 172.22797 L 86.726489 172.69822 L 86.473275 172.68892 L 85.682625 172.56283 L 85.669189 172.22797 z M 87.367794 173.01965 L 88.239575 175.91663 L 90.183643 175.16732 L 88.58374 173.79066 L 96.683504 174.81489 L 100.26468 181.33594 L 106.16665 182.54723 L 108.7391 184.54969 L 109.19695 186.8927 L 118.55865 188.77941 L 124.86318 199.20151 L 127.11472 199.91258 L 127.14366 202.00496 L 132.89318 207.70125 L 131.72426 210.04013 L 125.86415 207.96222 L 124.35313 204.91176 L 120.37767 204.71022 L 118.95295 202.76977 L 119.80354 199.88468 L 118.6341 201.07633 L 113.58221 199.25112 L 111.02371 195.21881 L 105.15224 192.28204 L 105.34551 190.96119 L 99.383081 185.4499 L 103.54975 185.50623 L 104.56468 186.49841 L 105.81886 184.44221 L 99.06217 182.83249 L 97.872062 183.74664 L 96.428223 181.44342 L 93.111629 181.70077 L 92.354053 177.55271 L 90.465796 178.29375 L 85.642318 173.94414 L 87.367794 173.01965 z M 141.30404 178.80741 L 142.7825 179.92155 L 142.01924 179.94326 L 141.39137 179.30195 L 141.30404 178.80741 z M 143.89406 180.24195 L 144.09508 180.26779 L 144.03927 180.40938 L 143.94057 180.28381 L 143.89406 180.24195 z M 144.1204 181.29201 L 144.11937 181.29821 L 144.11833 181.29821 L 144.1204 181.29201 z M 59.835624 182.3519 L 59.920374 183.00767 L 59.38914 183.30636 L 59.226876 183.07123 L 59.835624 182.3519 z M 102.61596 184.64426 L 103.01025 184.6453 L 103.02059 184.70524 L 102.7343 184.73108 L 102.61596 184.64426 z M 69.181824 184.6732 L 70.693359 186.61985 L 69.724943 185.87468 L 69.390597 185.4561 L 69.181824 184.6732 z M 66.11276 195.93608 L 67.378833 196.29265 L 66.752515 197.33289 L 66.452791 196.39445 L 66.11276 195.93608 z M 68.733272 196.05184 L 68.924475 196.61562 L 68.675395 196.79908 L 68.758594 196.54793 L 68.733272 196.05184 z M 70.498022 197.70548 L 71.319161 198.15558 L 71.893286 202.36928 L 73.429626 203.91957 L 73.008464 205.3877 L 71.002384 201.69025 L 71.075765 200.49084 L 70.498022 197.70548 z M 85.97253 198.62584 L 88.2804 200.22161 L 88.396155 205.07299 L 86.816923 204.61307 L 86.564225 200.89133 L 85.97253 198.62584 z M 89.942314 199.92085 L 90.069954 201.03861 L 89.772298 200.66396 L 89.663778 200.51875 L 89.942314 199.92085 z M 90.174341 201.51093 L 90.546928 202.60854 L 90.182092 202.28763 L 90.129382 202.06077 L 90.174341 201.51093 z M 89.250366 202.7522 L 89.58678 203.05089 L 89.540271 203.59866 L 89.300492 203.30979 L 89.250366 202.7522 z M 90.589819 203.09688 L 91.136556 203.97538 L 90.31335 204.06117 L 90.493184 203.67669 L 90.589819 203.09688 z M 74.745825 203.87771 L 75.080172 204.40946 L 74.850212 204.98152 L 74.647123 204.75415 L 74.745825 203.87771 z M 134.737 205.90808 L 138.21172 214.42746 L 135.53333 212.63222 L 135.04809 209.98018 L 134.737 205.90808 z M 92.201607 208.50999 L 93.380347 209.76314 L 91.459534 211.29328 L 91.410958 209.24535 L 92.201607 208.50999 z M 132.13354 210.6158 L 133.70708 214.03265 L 132.46995 213.71432 L 130.87005 212.49062 L 132.13354 210.6158 z M 93.445976 214.39749 L 93.718827 214.60884 L 93.484733 214.81193 L 93.362777 214.55872 L 93.445976 214.39749 z M 144.67851 216.70846 L 145.07642 217.51564 L 144.71313 217.3601 L 144.63975 217.22677 L 144.67851 216.70846 z M 133.64766 218.03086 L 133.65282 218.15436 L 133.57531 218.14506 L 133.54275 218.04326 L 133.64766 218.03086 z M 113.59617 220.16716 L 113.99201 220.2333 L 113.66335 220.50616 L 113.49178 220.28085 L 113.59617 220.16716 z M 115.61155 220.52993 L 115.89939 220.65343 L 115.72575 220.88081 L 115.61155 220.52993 z M 103.51151 220.70718 L 104.07168 222.06782 L 103.15753 221.42651 L 102.9007 221.32678 L 103.51151 220.70718 z M 144.3116 221.06375 L 146.18798 221.49214 L 145.97714 222.37684 L 144.14521 222.15153 L 144.3116 221.06375 z M 147.51399 221.57586 L 150.15208 222.51637 L 148.34082 222.63419 L 147.61993 221.81305 L 147.51399 221.57586 z M 116.9355 222.24559 L 118.93589 224.21187 L 118.25531 223.80931 L 117.44399 222.91273 L 116.9355 222.24559 z M 104.38278 222.42077 L 107.9717 224.2837 L 109.81397 227.41168 L 109.2941 230.14329 L 107.61824 229.35626 L 106.21522 224.95291 L 104.38278 222.42077 z M 122.61939 222.78509 L 124.09578 222.97061 L 126.38815 227.88193 L 124.50403 226.24017 L 124.23531 225.44332 L 122.61939 222.78509 z M 119.17567 224.35347 L 119.74566 224.68988 L 119.93118 224.86765 L 119.17567 224.35347 z M 147.17758 225.24592 L 150.60993 227.15433 L 148.58835 227.51503 L 147.69538 226.01486 L 147.17758 225.24592 z M 134.85275 227.66644 L 135.45736 230.49573 L 134.25537 229.85597 L 134.26571 227.94343 L 134.85275 227.66644 z M 149.06377 228.31447 L 149.24154 228.60489 L 148.73717 228.57543 L 148.64261 228.44572 L 149.06377 228.31447 z M 127.8878 229.3144 L 128.22783 229.80636 L 127.7891 229.99963 L 126.78606 229.80636 L 127.8878 229.3144 z M 164.00704 230.34018 L 164.31038 230.83059 L 163.5373 231.31842 L 163.75951 231.04556 L 164.00704 230.34018 z M 152.19484 230.86625 L 152.57518 232.23722 L 151.27294 232.15144 L 151.08328 231.45226 L 152.19484 230.86625 z M 140.56971 232.25324 L 140.79967 232.36486 L 140.63173 232.47442 L 140.58418 232.40465 L 140.56971 232.25324 z M 102.89501 232.70748 L 106.62088 234.39265 L 104.48923 234.73578 L 104.02931 237.26792 L 103.00508 235.2913 L 102.89501 232.70748 z M 156.19718 233.20151 L 156.38064 233.37462 L 156.2747 233.37462 L 156.19822 233.28522 L 156.19718 233.20151 z M 141.72572 233.44645 L 142.47141 233.90069 L 142.22439 234.14202 L 141.76809 233.87485 L 141.72572 233.44645 z M 109.83516 234.02419 L 111.93167 239.72049 L 108.12828 238.94327 L 109.81552 238.32574 L 109.83516 234.02419 z M 161.7586 234.75128 L 161.76894 234.81123 L 161.71313 234.78746 L 161.7586 234.75128 z M 141.2906 236.97802 L 142.23783 237.46998 L 141.70815 237.47876 L 141.08389 237.34544 L 141.2906 236.97802 z M 109.94316 243.02778 L 112.36472 243.58588 L 112.25878 246.30148 L 111.42576 244.2768 L 109.94316 243.02778 z M 107.10819 247.18773 L 107.0467 247.27765 L 107.03636 247.20168 L 107.10819 247.18773 z M 103.19835 247.42286 L 105.42457 250.13639 L 107.73038 249.25996 L 109.84446 251.03298 L 107.87145 254.07155 L 105.2313 252.86801 L 105.78631 251.45931 L 103.19835 247.42286 z M 112.69338 248.93905 L 112.96416 252.13317 L 114.63951 253.21475 L 113.91501 254.70304 L 111.07591 253.93616 L 112.14251 250.92342 L 112.69338 248.93905 z M 108.29261 255.67352 L 111.65158 256.41042 L 113.90106 259.36322 L 112.04226 262.00337 L 112.72439 266.00209 L 114.92167 267.98853 L 114.0597 269.07994 L 109.00988 260.32181 L 108.29261 255.67352 z M 118.27288 267.97613 L 119.67383 269.03653 L 118.82582 269.85302 L 117.1944 268.85308 L 118.27288 267.97613 z M 112.2624 270.05817 L 112.18127 271.28962 L 111.94924 270.63591 L 111.63246 270.38683 L 112.2624 270.05817 z " /><path
       sodipodi:type="star"
       style="fill:none;fill-opacity:1;stroke:#000000;stroke-width:4;stroke-miterlimit:4;stroke-dasharray:none;stroke-opacity:1"
       id="path904-0"
       sodipodi:sides="6"
       sodipodi:cx="100.84282"
       sodipodi:cy="197.35464"
       sodipodi:r1="95.276993"
       sodipodi:r2="82.512299"
       sodipodi:arg1="1.5707963"
       sodipodi:arg2="2.0943951"
       inkscape:flatsided="true"
       inkscape:rounded="0"
       inkscape:randomized="0"
       d="m 100.84282,292.63164 -82.512296,-47.6385 -2e-6,-95.27699 82.512298,-47.6385 82.51229,47.6385 1e-5,95.27699 z"
       inkscape:transform-center-x="1.2571428e-06"
       clip-path="none" /><flowRoot
       xml:space="preserve"
       id="flowRoot1572"
       style="font-style:normal;font-variant:normal;font-weight:normal;font-stretch:normal;font-size:40px;line-height:1.25;font-family:'Asimov Pro';-inkscape-font-specification:'Asimov Pro, Normal';font-variant-ligatures:normal;font-variant-caps:normal;font-variant-numeric:normal;font-variant-east-asian:normal;letter-spacing:0px;word-spacing:0px;fill:#000000;fill-opacity:1;stroke:none"
       transform="matrix(0.81811124,0,0,0.81811124,-207.82361,-196.18084)"><flowRegion
         id="flowRegion1574"
         style="font-style:normal;font-variant:normal;font-weight:normal;font-stretch:normal;font-size:40px;font-family:'Asimov Pro';-inkscape-font-specification:'Asimov Pro, Normal';font-variant-ligatures:normal;font-variant-caps:normal;font-variant-numeric:normal;font-variant-east-asian:normal;fill:#000000;fill-opacity:1"><rect
           id="rect1576"
           width="487.01627"
           height="74.404915"
           x="133.73489"
           y="494.53864"
           style="font-style:normal;font-variant:normal;font-weight:normal;font-stretch:normal;font-family:'Asimov Pro';-inkscape-font-specification:'Asimov Pro, Normal';fill:#000000;fill-opacity:1;font-size:39.99999935px;font-variant-ligatures:normal;font-variant-caps:normal;font-variant-numeric:normal;font-variant-east-asian:normal" /></flowRegion><flowPara
         id="flowPara1578"
         style="font-style:normal;font-variant:normal;font-weight:normal;font-stretch:normal;font-size:40px;font-family:'Asimov Pro';-inkscape-font-specification:'Asimov Pro, Normal';font-variant-ligatures:normal;font-variant-caps:normal;font-variant-numeric:normal;font-variant-east-asian:normal;text-align:center;text-anchor:middle;fill:#000000;fill-opacity:1">floodmapr</flowPara></flowRoot></g></svg>
